<?xml version="1.0" standalone="no"?><!DOCTYPE svg PUBLIC "-//W3C//DTD SVG 1.1//EN" "http://www.w3.org/Graphics/SVG/1.1/DTD/svg11.dtd"><svg t="1772255618286" class="icon" viewBox="0 0 1381 1024" version="1.1" xmlns="http://www.w3.org/2000/svg" p-id="24887" xmlns:xlink="http://www.w3.org/1999/xlink" width="269.7265625" height="200"><path d="M0 184.94208c9.44512-27.00288 24.67456-48.39296 53.65888-57.32864 11.79392-3.6352 23.21536-8.51712 34.69056-13.12768 21.50912-8.63872 41.98016-6.98496 61.59616 5.46688 15.8016 10.02752 36.81024 6.92992 49.93152-6.12608C246.56128 67.37024 301.99808 50.7776 366.21952 67.13984c10.30144 2.624 15.94624 2.2592 23.1296-7.36128 33.41824-44.75776 95.79392-55.76704 143.33184-26.19904 6.95168 4.32128 12.02432 4.24448 19.43424 0.8C608.40576 8.2176 663.41504 11.24736 716.16512 44.1344c8.4224 5.24672 13.95456 5.6128 22.39872-0.11776 36.39936-24.7104 85.4912-23.16928 121.6064 1.93664 5.728 3.98208 13.56544 5.43104 20.672 6.82112 11.81952 2.30528 24.032 2.79296 35.69152 5.6448 7.23712 1.76896 11.9616 1.57056 17.71776-3.9424 41.23008-39.51872 95.85408-43.35488 142.3872-10.9376 3.4816 2.42432 9.79328 4.57472 12.97664 3.0592 47.75424-22.79424 107.39712 4.53248 119.7504 61.08672 18.30144 1.90336 37.0432 1.53472 54.50624 6.08256 62.03392 16.15488 100.21504 56.47872 114.85696 118.97344 0.70144 3.00416 1.8176 5.90848 2.74304 8.85888v43.17312c-9.32608 22.05312-15.50848 46.21568-28.61312 65.73568-30.53056 45.472-76.14592 65.14432-130.36672 65.54496-24.19584 0.18432-48.3968 0.03328-73.39008 0.03328-0.76032 12.80768 0.2176 23.04384 7.9936 33.45408 29.27744 39.18208 26.45888 96.66432-5.92512 133.1584-6.38336 7.18976-8.60928 13.92768-8.72064 23.81184-0.69504 61.82016-26.36032 110.8288-78.62016 144.75776-7.84512 5.09312-11.54688 9.89952-12.21888 19.77088-2.6176 38.55872-20.06656 69.62816-52.32896 91.09504-9.23136 6.14272-11.94496 12.50176-11.75808 22.90816 0.5824 32.8128 0.30976 65.63712 0.17536 98.45888-0.08192 20.29184-7.15648 27.32928-27.69024 27.54944-18.88256 0.20736-37.7664 0.2176-56.64768-0.00384-19.93216-0.23424-27.4304-7.54176-27.648-27.91168-0.34944-32.8192-0.09984-65.64096-0.11264-98.46272 0-3.14496 0.6784-6.53312-0.27008-9.37216-0.95232-2.84288-3.54688-5.1328-5.42336-7.6672-1.7728 2.70336-4.20608 5.20064-5.12896 8.16768-0.88704 2.87232-0.23808 6.2336-0.24064 9.37984-0.00256 31.47136 0.07936 62.94272-0.02944 94.41408-0.08448 25.04704-6.3424 31.37408-30.8352 31.49312a4957.5424 4957.5424 0 0 1-51.25504-0.0064c-23.328-0.13824-29.84064-6.50496-29.90208-29.45024-0.09472-33.71776 0.36224-67.44448-0.42368-101.14944-0.12928-5.3952-4.51456-11.70176-8.6848-15.80544-12.36864-12.1792-25.6128-23.47264-38.62144-35.20384-16.92544 5.2032-35.28832 12.27136-54.29504 16.37504-32.7424 7.07456-65.23264 3.87584-96.44032-8.45184-7.57376-2.99264-11.83616-1.94304-17.17888 4.14976-6.74176 7.69408-14.30272 15.35104-23.01312 20.4608-10.08512 5.92256-12.36352 13.15456-12.12928 24.08448 0.6976 32.8064 0.3648 65.63456 0.20096 98.45248-0.09216 18.67776-7.41632 26.16064-26.06336 26.4704-18.87744 0.31232-37.76512 0.19072-56.65024 0.05632-22.19776-0.15872-29.472-7.49056-29.59872-30.26048-0.18432-32.8192-0.03328-65.64352-0.07552-98.46272-0.00256-3.584 0.11904-7.27296-0.70784-10.69312-0.37888-1.57696-2.90816-3.65568-4.46208-3.65568-1.71008-0.00256-4.48 1.83168-4.91392 3.38688-0.94208 3.37536-0.88704 7.08736-0.89344 10.65984-0.05248 33.26976 0.096 66.53952-0.08192 99.81056-0.11904 22.26944-6.90688 29.04448-28.8832 29.20832-19.32928 0.14848-38.67008 0.29952-57.99296-0.08064-17.10976-0.34048-24.704-7.7824-24.87296-24.88192-0.34176-35.0656 0.17792-70.14272-0.4608-105.19808-0.096-5.23904-3.12192-12.49536-7.20256-15.27552-37.84832-25.78688-57.09184-60.96384-56.70528-106.87616 0.17408-20.73984-7.61856-30.26432-28.03712-35.17696-73.71648-17.7408-125.66912-75.8336-132.61184-151.3472-1.72928-18.80192 3.51744-38.19392 4.96896-57.36064 0.40448-5.31968 0.51456-12.09728-2.29888-16.0128-48.57088-67.65312-39.15904-161.2224 17.75872-217.33504 1.23136-1.21216 2.07872-2.81216 3.93216-5.38112-3.45856-1.06368-6.11584-1.96608-8.82048-2.69312-30.7264-8.28416-47.7312-29.91488-57.25952-58.82368 0.00256-9.89568 0.00256-19.78624 0.00256-29.67936z m905.84192-86.67776c-10.67008 0-19.64928-1.1072-28.23808 0.2432-15.42656 2.42432-27.17696-1.61408-38.93504-12.45952-23.83744-21.99296-62.22464-20.04352-85.728 2.51008-20.44544 19.61856-25.70752 19.84256-47.64288 2.0352-43.05664-34.96576-97.8944-38.77632-145.52064-10.12096-19.23712 11.57376-24.18048 11.1872-41.80096-3.24736-34.52032-28.29312-83.17056-17.38496-101.74976 22.81344-11.26656 24.38144-18.10048 26.92736-42.81472 16-25.48992-11.2704-51.83488-13.664-78.96576-7.4304-31.13216 7.15904-55.6544 24.10112-74.02496 50.13504-13.856 19.6288-18.09024 20.62336-40.33792 12.7808-6.04288-2.13376-13.5232-3.24096-19.55584-1.7088-12.27136 3.11552-21.52192 0.7872-30.42432-8.32-10.31168-10.54848-19.04256-9.80864-31.01312-1.76128-6.34624 4.26496-14.43456 5.89824-21.66784 8.88576-8.47744 3.5008-18.22592 5.56544-24.98688 11.18464-9.69856 8.06528-10.176 25.17376-3.54688 35.96416 7.91424 12.8832 21.72672 18.08 37.37728 13.25312 10.12736-3.12448 19.56352-3.84384 27.36768 4.5184 7.7632 8.31616 6.84032 17.7984 2.9632 27.67104-2.2848 5.82272-5.0944 11.9296-5.29536 17.98144-0.47488 14.1952-7.25248 23.9936-17.1392 33.56672-43.64672 42.28096-50.11456 113.0816-13.23264 159.54176 13.86496 17.4656 16.3776 32.52224 9.51168 53.85472-21.01504 65.24288 23.94368 139.84384 91.01568 152.5568 24.68096 4.67968 43.53536 18.74944 57.8624 36.45696 7.5776 9.3696 5.0752 26.94784 6.96448 40.84224 0.6656 4.8832 0.76416 9.8432 1.30176 14.74944 4.33024 39.51488 34.49216 67.25248 73.9072 68.01024 32.86016 0.62848 61.07904-18.88896 72.46464-50.112 8.00256-21.95712 14.336-24.42752 37.48864-21.04064 12.38912 1.80992 25.7344 0.50944 38.144-1.94048 25.12256-4.95616 47.59296-5.46944 69.41824 12.76928 26.10048 21.8048 58.04288 28.77312 92.13824 25.59232 24.34304-2.26944 45.94688-10.9248 65.99424-24.64128 13.91104-9.52064 26.21568-9.2544 33.9392 0.30208 3.58912 4.43648 5.82912 10.04288 8.29312 15.30112 14.6816 31.34336 46.21824 47.87968 82.21952 42.96576 30.74944-4.192 55.968-30.50752 61.4016-63.13088 1.28896-7.73376 2.5728-18.5856 7.7824-21.984 18.4768-12.05376 37.71008-25.26336 61.73824-20.93952 78.87872 14.1952 154.32704-54.73536 144.84224-133.80992-2.01472-16.82304 2.24384-27.8464 14.78784-38.71744 25.26976-21.89184 29.04064-61.24672 7.39968-86.2336-11.31264-13.0624-14.88256-26.99264-15.65952-42.91968-0.21376-4.36736-0.60544-8.7232-0.96768-13.792-18.59456-1.41056-25.99552-11.79648-27.22432-29.37344-0.48384-6.93632-4.7424-15.2-9.94816-19.91296-13.56288-12.26496-14.48448-24.7104-7.37792-40.8832 16.19968-36.8768 13.46944-73.3504-5.55264-108.79744-2.93504-5.46432-5.91232-11.36512-6.79552-17.37216-1.8496-12.61312 26.96192-48.13952 39.584-47.94496 7.58912 0.1152 15.4368 3.71712 22.6048 6.9824 27.1872 12.35328 57.28896-5.94176 57.59232-35.51616 0.16768-16.3648-7.46624-28.54656-21.82272-35.93728-14.97472-7.70944-29.74848-5.98784-42.98112 4.22528-9.44256 7.28448-18.9248 13.12384-30.49728 5.74592-5.20064-3.31264-9.31968-8.36864-13.78944-12.7808-23.24352-22.93248-59.22432-25.01376-84.77312-4.90624-15.6992 12.34944-23.83616 28.3392-25.4336 48.36992-1.38624 17.40032-11.34208 25.96864-25.80736 24.18688-12.9728-1.59488-20.4224-13.1776-18.60352-29.35168 0.7936-7.05408 2.09408-14.05312 3.7504-24.91008z m191.05792 105.60512c0.95744 3.2704 1.3568 5.47072 2.22848 7.45984 14.49728 33.1712 18.08384 67.72224 9.37216 102.59584-4.19072 16.8-7.008 31.78112 5.1456 46.03904 0.81024 0.94848 0.49408 3.06304 1.37984 3.70176 3.80032 2.72896 7.81696 7.2256 11.81952 7.29472 33.71776 0.57728 67.44832 0.43136 101.17376 0.29312 62.4384-0.26368 117.21728-53.85344 107.71968-123.4304-8.12544-59.53792-58.20544-98.8416-124.8768-94.49088-2.85312 0.18688-6.47552 2.76992-8.1152 5.2928-28.52992 43.93344-52.93568 54.72896-105.84704 45.24416zM908.54016 834.80192c43.16032 15.2256 89.83808-12.2944 97.22112-59.05408-19.7056 0-39.3664-1.06752-58.8032 0.5504-7.29472 0.60544-17.25184 5.74592-20.45312 11.76192-7.63392 14.34752-11.968 30.45248-17.9648 46.74176z m-597.45152 49.3056v82.43712h22.67776v-82.43712h-22.67776z m124.07168 0.08832v82.40768h22.336v-82.40768h-22.336z m384.44672 82.81984v-82.53312h-22.5344v82.53312h22.5344z m101.1584-83.1488v82.43584h22.29248v-82.43584h-22.29248z m-416.23424-76.04736c-6.4832 0-12.18816-0.63616-17.69472 0.128-12.80128 1.7728-25.78688 6.96448-38.19008 5.72544-17.06624-1.71008-23.14624 6.65216-27.37152 20.01408 28.60032 12.50304 68.2624 0.8256 83.25632-25.86752z" p-id="24888"></path><path d="M1022.51392 285.05472c-0.01536 11.23968 0.30336 22.49344-0.09472 33.7216-0.49408 13.93792-8.84608 22.55616-21.3696 22.86592-12.704 0.30976-21.7472-7.52896-22.20544-21.71648a1054.49088 1054.49088 0 0 1 0.04608-70.10304c0.48512-14.13888 9.71648-22.04928 22.35904-21.64096 12.40064 0.39936 20.46848 9.18528 21.24672 23.15264 0.05248 0.896 0.032 1.7984 0.032 2.69696 0.00256 10.34496 0 20.68224-0.01408 31.02336zM1184.47616 230.38848c-1.16096 9.65632-7.12192 15.0144-16.6272 15.60064-9.20832 0.56576-16.50688-8.05248-15.75936-17.64224 0.80384-10.31552 7.4752-15.48544 16.86272-14.97216 9.41568 0.51072 15.16032 6.65216 15.52384 17.01376z" p-id="24889"></path></svg>